<?xml version="1.0" encoding="utf-8"?>
<!-- Generator: Adobe Illustrator 16.2.0, SVG Export Plug-In . SVG Version: 6.00 Build 0)  -->
<!DOCTYPE svg PUBLIC "-//W3C//DTD SVG 1.1//EN" "http://www.w3.org/Graphics/SVG/1.1/DTD/svg11.dtd">
<svg version="1.1" id="Capa_1" xmlns="http://www.w3.org/2000/svg" xmlns:xlink="http://www.w3.org/1999/xlink" x="0px" y="0px"
	 width="96.496px" height="54.609px" viewBox="0 20.944 96.496 54.609" enable-background="new 0 20.944 96.496 54.609"
	 xml:space="preserve">
<g>
	<path fill="#333333" d="M92.499,65.178c-2.873-3.445-6.254-6.387-9.453-9.51c-2.886-2.814-3.067-4.447-0.748-7.697
		c2.532-3.546,5.255-6.956,7.81-10.486c2.386-3.299,4.824-6.589,6.078-10.539c0.797-2.513,0.092-3.623-2.484-4.063
		c-0.444-0.077-0.903-0.081-1.355-0.081l-15.289-0.018c-1.883-0.028-2.924,0.793-3.59,2.462c-0.898,2.256-1.826,4.51-2.896,6.687
		c-2.43,4.936-5.145,9.707-8.949,13.747c-0.84,0.891-1.768,2.017-3.169,1.553c-1.755-0.64-2.271-3.53-2.242-4.507l-0.015-17.647
		c-0.34-2.521-0.899-3.645-3.402-4.135l-15.882,0.003c-2.12,0-3.183,0.819-4.315,2.145c-0.653,0.766-0.85,1.263,0.492,1.517
		c2.636,0.5,4.121,2.206,4.515,4.849c0.632,4.223,0.588,8.463,0.224,12.703c-0.107,1.238-0.32,2.473-0.811,3.629
		c-0.768,1.817-2.008,2.187-3.637,1.069c-1.475-1.012-2.511-2.44-3.525-3.874c-3.809-5.382-6.848-11.186-9.326-17.285
		c-0.716-1.762-1.951-2.83-3.818-2.859c-4.587-0.073-9.175-0.085-13.762,0.004c-2.76,0.052-3.583,1.392-2.459,3.894
		c4.996,11.113,10.557,21.917,17.816,31.759c3.727,5.051,8.006,9.51,13.534,12.67c6.265,3.582,13.009,4.66,20.112,4.328
		c3.326-0.156,4.324-1.021,4.479-4.336c0.104-2.268,0.361-4.523,1.48-6.561c1.098-2,2.761-2.382,4.678-1.138
		c0.959,0.623,1.768,1.416,2.53,2.252c1.872,2.048,3.677,4.158,5.62,6.138c2.437,2.479,5.324,3.944,8.953,3.646L93.744,75.5
		c2.264-0.148,3.438-2.924,2.138-5.451C94.969,68.279,93.771,66.703,92.499,65.178z"/>
</g>
</svg>
