<?xml version="1.0" encoding="utf-8"?>
<!-- Generator: Adobe Illustrator 16.2.0, SVG Export Plug-In . SVG Version: 6.00 Build 0)  -->
<!DOCTYPE svg PUBLIC "-//W3C//DTD SVG 1.1//EN" "http://www.w3.org/Graphics/SVG/1.1/DTD/svg11.dtd">
<svg version="1.1" id="Слой_1" xmlns="http://www.w3.org/2000/svg" xmlns:xlink="http://www.w3.org/1999/xlink" x="0px" y="0px"
	 width="39.333px" height="42px" viewBox="0 0 39.333 42" enable-background="new 0 0 39.333 42" xml:space="preserve">
<path fill="#333333" d="M3.938,13.471c0-0.581,0.292-1.663,0.796-1.953l13.983-8.073c0.503-0.291,1.327-0.291,1.831,0l13.984,8.073
	c0.504,0.29,1.406,1.372,1.406,1.953v16c0,0.582-0.902,1.074-1.406,1.365l-13.984,8.072c-0.503,0.291-1.327,0.291-1.831,0
	L4.733,30.836c-0.504-0.291-0.796-0.783-0.796-1.365L3.938,13.471L3.938,13.471z"/>
<path fill="#FFFFFF" d="M25.065,15.336v0.125l0,0V15.336h-0.254l-0.152-0.154l-0.007-0.007l-0.681-0.692l-0.008-0.008
	c-0.211-0.198-0.504-0.799-0.797-0.809h-7c-0.279,0.009-0.166,0.599-0.377,0.78l-0.009,0.005l-0.705,0.717l-0.016,0.018l-0.149,0.15
	h-0.253c-0.268,0.002-0.484,0.219-0.484,0.484v0.448c0,0.267,0.217,0.483,0.484,0.484h0.377l0.23,1.91l0,0l0.042,0.347l0.313,2.595
	l0.098,0.811l0.06,0.497l0.044,0.364l0.566,4.703c0.049,0.353,0.342,0.612,0.696,0.619h5.555c0.354-0.007,0.647-0.268,0.696-0.617
	l0.67-5.566l0.682-5.661h0.379c0.268-0.001,0.482-0.216,0.482-0.484v-0.447C25.547,15.553,25.333,15.338,25.065,15.336z
	 M16.383,22.766l-0.051-0.426l-0.222-1.837l-0.146-1.22h3.237c-0.744,0.27-1.276,0.98-1.276,1.816c0,0.793,0.478,1.474,1.159,1.773
	h-2.688L16.383,22.766z M19.861,19.786c0.728,0.001,1.315,0.589,1.316,1.314c-0.001,0.729-0.589,1.316-1.316,1.317
	c-0.727-0.001-1.314-0.589-1.316-1.317C18.546,20.375,19.134,19.787,19.861,19.786z M22.72,28.152l0.122,0.016l0,0l0,0l-0.122-0.014
	c0,0.007-0.011,0.031-0.029,0.05c-0.019,0.017-0.039,0.024-0.048,0.024l0,0c-0.004,0-0.471-0.33-0.477-0.33h-5
	c-0.007,0.002-0.116,0.324-0.135,0.306c-0.02-0.019-0.029-0.043-0.029-0.05l-0.531-4.66h6.779L22.72,28.152z M23.506,21.374
	l-0.117,0.966l-0.063,0.534h-2.688c0.683-0.3,1.159-0.979,1.159-1.773c0-0.836-0.532-1.547-1.275-1.816h3.236L23.506,21.374z
	 M23.833,18.664H15.89l-0.723-1.997h9L23.833,18.664z M24.929,16.133H14.792v-0.177l10.137,0.001V16.133z"/>
</svg>
