<?xml version="1.0" encoding="utf-8"?>
<!-- Generator: Adobe Illustrator 16.2.0, SVG Export Plug-In . SVG Version: 6.00 Build 0)  -->
<!DOCTYPE svg PUBLIC "-//W3C//DTD SVG 1.1//EN" "http://www.w3.org/Graphics/SVG/1.1/DTD/svg11.dtd">
<svg version="1.1" id="Capa_1" xmlns="http://www.w3.org/2000/svg" xmlns:xlink="http://www.w3.org/1999/xlink" x="0px" y="0px"
	 width="152.5px" height="128px" viewBox="0 0 152.5 128" enable-background="new 0 0 152.5 128" xml:space="preserve">
<g>
	<g>
		<ellipse fill="#333333" cx="19.063" cy="12" rx="4.766" ry="4"/>
		<ellipse fill="#333333" cx="33.359" cy="12" rx="4.766" ry="4"/>
		<ellipse fill="#333333" cx="47.656" cy="12" rx="4.766" ry="4"/>
		<path fill="#333333" d="M138.203,0H14.297C6.401,0,0,5.373,0,12v8v4v92c0,6.627,6.401,12,14.297,12h123.906
			c7.896,0,14.297-5.373,14.297-12V24v-4v-8C152.5,5.373,146.1,0,138.203,0z M147.734,114c0,5.521-5.336,10-11.914,10H16.68
			c-6.579,0-11.914-4.479-11.914-10V24h142.968V114L147.734,114z M147.734,20H4.766v-6c0-5.522,5.335-10,11.914-10h119.14
			c6.578,0,11.914,4.478,11.914,10V20L147.734,20z"/>
	</g>
</g>
<g>
	<g>
		<path fill="#333333" d="M73.813,54.242l0.51-3.572l-0.809-0.569h1.784h1.947l-0.801,0.566l0.517,3.57l3.25-5.494
			c5.662,0.654,9.74,2.741,9.743,7.818L60.831,56.59c-0.009-5.076,4.057-7.172,9.721-7.835L73.813,54.242z M69.272,42.54
			c0.014-0.002,0.029-0.019,0.046-0.024c0.979,3.042,3.513,5.316,6.077,5.364c2.345-0.096,5.208-2.334,6.167-5.36
			c0.44,0.021,0.877-0.425,1.004-1.05c0.131-0.647-0.145-1.227-0.602-1.292c-0.027-0.004-0.049,0.01-0.081,0.012
			c-0.144-5.012-2.903-6.768-6.388-6.841c-3.587,0.018-6.8,2.167-6.59,6.857c-0.036-0.005-0.068-0.019-0.104-0.017
			c-0.448,0.069-0.719,0.644-0.589,1.295C68.344,42.139,68.814,42.611,69.272,42.54z M57.072,84.18l-3.25,5.494L53.3,86.105
			l0.805-0.569h-1.947l-1.784,0.004l0.807,0.569l-0.511,3.572l-3.264-5.49c-5.664,0.664-9.729,2.76-9.72,7.836l29.124-0.034
			C66.812,86.921,62.733,84.842,57.072,84.18z M58.741,75.636c-0.142-5.011-2.902-6.768-6.389-6.841
			c-3.582,0.02-6.797,2.173-6.587,6.855c-0.036-0.002-0.066-0.021-0.102-0.017c-0.45,0.067-0.72,0.646-0.59,1.296
			c0.13,0.646,0.601,1.122,1.057,1.057c0.019,0,0.031-0.012,0.048-0.021c0.978,3.043,3.513,5.317,6.079,5.361
			c2.338-0.096,5.208-2.333,6.165-5.359c0.444,0.023,0.879-0.427,1.001-1.051c0.129-0.646-0.144-1.227-0.599-1.299
			C58.795,75.617,58.772,75.632,58.741,75.636z M103.354,84.18l-3.252,5.494l-0.521-3.566l0.813-0.569h-1.951l-1.783,0.004
			l0.807,0.569l-0.51,3.57l-3.268-5.49c-5.658,0.666-9.732,2.762-9.721,7.836l29.129-0.032
			C113.093,86.921,109.018,84.842,103.354,84.18z M92.411,77.98c0.019,0,0.032-0.018,0.048-0.021
			c0.98,3.037,3.512,5.316,6.077,5.357c2.345-0.098,5.211-2.334,6.167-5.357c0.443,0.021,0.879-0.423,1.002-1.048
			c0.131-0.646-0.143-1.228-0.598-1.296c-0.031-0.006-0.053,0.009-0.088,0.013c-0.138-5.009-2.896-6.767-6.383-6.84
			c-3.584,0.019-6.804,2.167-6.594,6.854c-0.029-0.004-0.063-0.021-0.102-0.017c-0.446,0.069-0.721,0.646-0.588,1.294
			C91.486,77.578,91.956,78.047,92.411,77.98z M109.123,72.984c0,0.834-0.061,1.651-0.145,2.475l2.106,1.814
			c0.231-1.402,0.388-2.828,0.388-4.289c0-13.76-10.473-25.447-24.908-29.507v2.154C99.68,49.616,109.123,60.355,109.123,72.984z
			 M41.806,75.459c-0.079-0.814-0.147-1.641-0.147-2.475c0-12.629,9.439-23.373,22.553-27.354v-2.154
			c-14.438,4.061-24.906,15.746-24.906,29.506c0,1.461,0.159,2.888,0.386,4.289L41.806,75.459z M75.39,102.016
			c-9.068,0-17.3-3.115-23.369-8.146l-1.664,1.435c6.498,5.398,15.313,8.731,25.032,8.731c9.72,0,18.539-3.333,25.033-8.731
			l-1.665-1.435C92.693,98.9,84.461,102.016,75.39,102.016z"/>
	</g>
</g>
</svg>
