<?xml version="1.0" encoding="utf-8"?>
<!-- Generator: Adobe Illustrator 16.2.0, SVG Export Plug-In . SVG Version: 6.00 Build 0)  -->
<!DOCTYPE svg PUBLIC "-//W3C//DTD SVG 1.1//EN" "http://www.w3.org/Graphics/SVG/1.1/DTD/svg11.dtd">
<svg version="1.1" id="Capa_1" xmlns="http://www.w3.org/2000/svg" xmlns:xlink="http://www.w3.org/1999/xlink" x="0px" y="0px"
	 width="152.5px" height="128px" viewBox="0 0 152.5 128" enable-background="new 0 0 152.5 128" xml:space="preserve">
<g>
	<g>
		<ellipse fill="#333333" cx="19.063" cy="12" rx="4.766" ry="4"/>
		<ellipse fill="#333333" cx="33.359" cy="12" rx="4.766" ry="4"/>
		<ellipse fill="#333333" cx="47.656" cy="12" rx="4.766" ry="4"/>
		<path fill="#333333" d="M138.203,0H14.297C6.401,0,0,5.373,0,12v8v4v92c0,6.627,6.401,12,14.297,12h123.906
			c7.896,0,14.297-5.373,14.297-12V24v-4v-8C152.5,5.373,146.1,0,138.203,0z M147.734,114c0,5.521-5.336,10-11.914,10H16.68
			c-6.579,0-11.914-4.479-11.914-10V24h142.968V114L147.734,114z M147.734,20H4.766v-6c0-5.522,5.335-10,11.914-10h119.14
			c6.578,0,11.914,4.478,11.914,10V20L147.734,20z"/>
	</g>
</g>
<g>
	<g>
		<path fill="#333333" stroke="#333333" stroke-width="2" stroke-miterlimit="10" d="M91.422,78.197v-6.509
			c0-0.335-0.22-0.643-0.555-0.778c-0.176-0.073-0.368-0.087-0.554-0.056c3.074-4.289,5.293-9.35,5.293-14.405
			c0-12.641-8.793-22.924-19.604-22.924c-10.81,0-19.602,10.283-19.602,22.923c0,5.061,1.716,10.141,4.254,14.443
			c-0.204-0.059-0.419-0.073-0.629,0c-0.357,0.129-0.592,0.443-0.592,0.797l0,0v6.771l0,0c0,0.045,0.02,0.086,0.028,0.13
			c-10.406,2.566-20.237,7.541-28.392,14.963c-0.367,0.335-0.367,0.878,0,1.212c0.368,0.334,0.963,0.334,1.331,0
			c8.119-7.393,17.946-12.287,28.334-14.719l5.842,5.609c-0.003,0.086-0.027,0.16-0.027,0.246c0,2.271,1.169,4.357,3.159,5.711
			l-5.062,14.183c-0.108,0.307-0.02,0.644,0.23,0.87l8.979,8.178c0.177,0.159,0.416,0.248,0.667,0.248
			c0.25,0,0.488-0.089,0.665-0.248l8.982-8.178c0.247-0.228,0.337-0.566,0.227-0.87l-5.119-14.291
			c1.796-1.292,2.855-3.222,2.951-5.312l8.087-6.468c10.922,2.3,21.29,7.306,29.782,15.039c0.185,0.168,0.423,0.248,0.665,0.248
			c0.243,0,0.483-0.082,0.666-0.248c0.366-0.336,0.366-0.878,0-1.211C112.853,85.749,102.427,80.628,91.422,78.197z M88.031,79.28
			l-6.042,4.834c-0.332-1.152-0.96-2.188-1.82-3.038l3.059-2.447l1.899-1.518l4.411-3.529v4.243v0.25L88.031,79.28z M61.342,78.145
			l-0.027-0.025v-4.287l3.766,3.617l1.559,1.495l2.107,2.022c-0.776,0.739-1.36,1.633-1.735,2.618l-4.157-3.989L61.342,78.145z
			 M76.004,35.189c9.803,0,17.771,9.536,17.771,21.259c0,7.801-5.781,15.846-11.346,20.37c-0.716,0.577-1.425,1.119-2.115,1.573
			c-0.77,0.505-1.511,0.9-2.222,1.23c-0.378,0.175-0.743,0.327-1.097,0.449c-0.735,0.253-1.428,0.414-2.027,0.414
			c-0.795,0-1.664-0.205-2.572-0.577c-0.375-0.15-0.756-0.335-1.144-0.544c-0.432-0.234-0.87-0.508-1.312-0.811
			c-0.64-0.437-1.284-0.948-1.927-1.515c-5.002-4.397-9.784-12.423-9.784-20.591C58.229,44.727,66.204,35.189,76.004,35.189z
			 M66.616,105.829l4.815-13.499l6.125-0.099l4.875,13.6l-7.908,7.199L66.616,105.829z M79.821,88.126
			c-0.464,0.932-1.184,1.754-2.163,2.336c-0.078,0.045-0.141,0.166-0.199,0.167v0.003l-6.042-0.003h-0.011
			c-0.03,0-0.056-0.062-0.092-0.084c-1.142-0.632-1.947-1.579-2.417-2.657l-1.355-1.3v-0.001l1.355,1.299
			c-0.088-0.2-0.208-0.386-0.268-0.595c-0.129-0.447-0.196-0.907-0.196-1.384c0-0.293,0.045-0.577,0.097-0.859
			c0.064-0.372,0.166-0.732,0.312-1.073c0.387-0.921,1.044-1.714,1.88-2.315c0.185-0.132,0.37-0.257,0.57-0.373
			c1.261,0.545,2.505,0.868,3.675,0.868c0.853,0,1.847-0.234,2.918-0.654c0.131,0.084,0.241,0.179,0.361,0.273
			c0.89,0.688,1.554,1.6,1.881,2.647c0.105,0.33,0.172,0.669,0.205,1.019c0.012,0.116,0.033,0.232,0.035,0.354
			c0,0.038,0.016,0.077,0.016,0.113C80.388,86.69,80.166,87.432,79.821,88.126l1.382-1.105L79.821,88.126z"/>
	</g>
</g>
</svg>
