<?xml version="1.0" encoding="utf-8"?>
<!-- Generator: Adobe Illustrator 16.2.0, SVG Export Plug-In . SVG Version: 6.00 Build 0)  -->
<!DOCTYPE svg PUBLIC "-//W3C//DTD SVG 1.1//EN" "http://www.w3.org/Graphics/SVG/1.1/DTD/svg11.dtd">
<svg version="1.1" id="Capa_1" xmlns="http://www.w3.org/2000/svg" xmlns:xlink="http://www.w3.org/1999/xlink" x="0px" y="0px"
	 width="152.5px" height="128px" viewBox="0 0 152.5 128" enable-background="new 0 0 152.5 128" xml:space="preserve">
<g>
	<g>
		<ellipse fill="#333333" cx="19.063" cy="12" rx="4.766" ry="4"/>
		<ellipse fill="#333333" cx="33.359" cy="12" rx="4.766" ry="4"/>
		<ellipse fill="#333333" cx="47.656" cy="12" rx="4.766" ry="4"/>
		<path fill="#333333" d="M138.203,0H14.297C6.401,0,0,5.373,0,12v8v4v92c0,6.627,6.401,12,14.297,12h123.906
			c7.896,0,14.297-5.373,14.297-12V24v-4v-8C152.5,5.373,146.099,0,138.203,0z M147.734,114c0,5.521-5.336,10-11.914,10H16.68
			c-6.579,0-11.914-4.479-11.914-10V24h142.969V114z M147.734,20H4.766v-6c0-5.522,5.335-10,11.914-10H135.82
			c6.578,0,11.914,4.478,11.914,10V20z"/>
	</g>
</g>
<g>
	<g id="Light_Bulb">
		<path fill="#333333" d="M68.835,95.029c-0.514,0-1.03-0.172-1.399-0.517c-4.278-3.938-4.625-12.349-4.641-12.702
			c0-3.17-2.414-6.456-5.21-10.26c-4.339-5.902-9.259-12.595-6.974-21.305c3.491-13.339,21.065-14.375,26.367-14.375
			c1.043,0,1.881,0.695,1.881,1.548c0,0.855-0.841,1.55-1.881,1.55c-5.884,0-19.871,1.161-22.691,11.93
			c-1.966,7.507,2.346,13.374,6.518,19.047c2.96,4.027,5.754,7.829,5.754,11.818c0.079,2.066,0.895,8.117,3.683,10.683
			c0.69,0.64,0.624,1.617-0.146,2.188C69.732,94.898,69.281,95.029,68.835,95.029z"/>
		<path fill="#333333" d="M85.228,95.029c-0.447,0-0.901-0.131-1.256-0.395c-0.772-0.57-0.84-1.548-0.147-2.188
			c2.794-2.575,3.604-8.617,3.679-10.726c0-3.947,2.791-7.749,5.758-11.778c4.17-5.673,8.484-11.54,6.518-19.046
			C96.951,40.13,82.968,38.969,77.081,38.969c-1.042,0-1.881-0.695-1.881-1.55c0-0.854,0.839-1.548,1.881-1.548
			c5.303,0,22.88,1.036,26.371,14.375c2.281,8.71-2.638,15.402-6.979,21.305c-2.794,3.804-5.211,7.09-5.211,10.214
			c-0.014,0.402-0.36,8.811-4.635,12.748C86.259,94.857,85.741,95.029,85.228,95.029z"/>
		<path fill="#333333" d="M77.208,94.022c-0.781,0-1.41-0.521-1.41-1.163c0-0.784,0.052-1.99,0.117-3.489
			c0.184-4.247,0.527-12.143-0.254-18.966c-3.827,0.706-6.43-0.53-7.851-1.563c-3.927-2.86-4.824-8.218-3.007-11.097
			c1.11-1.758,3.1-2.498,5.448-2.035c3.08,0.609,5.134,2.958,6.466,6.479c1.814-5.411,4.91-7.801,7.685-8.151
			c2.131-0.274,4.043,0.661,4.864,2.372c1.281,2.656-0.04,7.348-7.967,11.838c-1.015,0.577-1.981,1.03-2.89,1.377
			c0.714,5.732,0.64,12.687,0.329,19.833c-0.065,1.461-0.119,2.64-0.119,3.407C78.62,93.501,77.988,94.022,77.208,94.022z
			 M68.936,57.895c-0.717,0-1.231,0.296-1.625,0.921c-1.278,2.021-0.434,6.241,2.373,8.284c1.536,1.119,3.453,1.44,5.662,0.975
			c-0.856-5.269-2.549-9.475-5.751-10.107C69.357,57.92,69.136,57.895,68.936,57.895z M85.132,56.311
			c-0.097,0-0.198,0.006-0.297,0.02c-1.766,0.224-5.147,2.78-6.388,10.658c0.413-0.197,0.83-0.417,1.255-0.658
			c6.106-3.456,7.881-7.125,6.944-9.066C86.468,56.892,86.042,56.311,85.132,56.311z"/>
		<path fill="#333333" d="M86.065,100.294H67.969c-2.007,0-3.644-1.438-3.644-3.201V96.02c0-1.767,1.635-3.203,3.644-3.203h18.097
			c2.01,0,3.646,1.438,3.646,3.203v1.073C89.712,98.856,88.077,100.294,86.065,100.294z M67.969,95.139
			c-0.443,0-0.821,0.402-0.821,0.878v1.073c0,0.477,0.377,0.877,0.821,0.877h18.097c0.445,0,0.826-0.402,0.826-0.877v-1.073
			c0-0.477-0.378-0.878-0.826-0.878H67.969z"/>
		<path fill="#333333" d="M86.065,105.455H67.969c-2.007,0-3.644-1.438-3.644-3.201v-1.075c0-1.766,1.635-3.201,3.644-3.201h18.097
			c2.01,0,3.646,1.437,3.646,3.201v1.075C89.712,104.018,88.077,105.455,86.065,105.455z M67.969,100.295
			c-0.443,0-0.821,0.408-0.821,0.881v1.074c0,0.478,0.377,0.878,0.821,0.878h18.097c0.445,0,0.826-0.402,0.826-0.878v-1.074
			c0-0.479-0.378-0.881-0.826-0.881H67.969z"/>
		<path fill="#333333" d="M77.016,110.188c-4.323,0-7.84-2.501-7.84-5.577c0-0.642,0.632-1.162,1.41-1.162
			c0.779,0,1.411,0.521,1.411,1.162c0,1.793,2.252,3.254,5.019,3.254c2.768,0,5.023-1.46,5.023-3.254
			c0-0.642,0.631-1.162,1.409-1.162c0.78,0,1.411,0.521,1.411,1.162C84.859,107.688,81.342,110.188,77.016,110.188z"/>
	</g>
</g>
</svg>
