<?xml version="1.0" encoding="iso-8859-1"?>
<!-- Generator: Adobe Illustrator 17.1.0, SVG Export Plug-In . SVG Version: 6.00 Build 0)  -->
<!DOCTYPE svg PUBLIC "-//W3C//DTD SVG 1.1//EN" "http://www.w3.org/Graphics/SVG/1.1/DTD/svg11.dtd">
<svg xmlns="http://www.w3.org/2000/svg" xmlns:xlink="http://www.w3.org/1999/xlink" version="1.1" id="Capa_1" x="0px" y="0px" viewBox="0 0 206.447 206.447" style="enable-background:new 0 0 206.447 206.447;" xml:space="preserve" width="512px" height="512px">
<path d="M197.947,204.893h-46.04c-1.104,0-2-0.896-2-2s0.896-2,2-2h21.02v-7.101c-0.801,0.053-1.605,0.079-2.415,0.079  c-9.001,0-17.497-3.285-24.118-9.289l-2.17,2.169c-0.781,0.781-2.047,0.781-2.828,0l-4.951-4.951  c-0.375-0.375-0.586-0.884-0.586-1.414s0.211-1.039,0.586-1.414l55.121-55.121c0.781-0.781,2.047-0.781,2.828,0l4.951,4.951  c0.375,0.375,0.586,0.884,0.586,1.414s-0.211,1.039-0.586,1.414l-2.169,2.169c12.763,14.095,12.35,35.951-1.241,49.541  c-5.253,5.253-11.846,8.681-19.008,9.964v7.588h21.021c1.104,0,2,0.896,2,2S199.052,204.893,197.947,204.893z M149.224,181.751  c5.841,5.24,13.344,8.12,21.288,8.12c8.535,0,16.56-3.324,22.595-9.359c12.03-12.031,12.442-31.349,1.236-43.88L149.224,181.751z   M140.687,180.387l2.123,2.123l52.293-52.293l-2.123-2.123L140.687,180.387z M54.558,204.893H8.517c-1.104,0-2-0.896-2-2  s0.896-2,2-2h21.021v-7.588c-7.162-1.283-13.754-4.71-19.007-9.964C3.739,176.55,0,167.522,0,157.918c0-9,3.285-17.497,9.288-24.119  l-2.169-2.169c-0.375-0.375-0.586-0.884-0.586-1.414s0.211-1.039,0.586-1.414l4.951-4.951c0.781-0.781,2.047-0.781,2.828,0  l55.121,55.121c0.375,0.375,0.586,0.884,0.586,1.414s-0.211,1.039-0.586,1.414l-4.951,4.951c-0.781,0.781-2.047,0.781-2.828,0  l-2.17-2.169c-6.621,6.004-15.117,9.289-24.118,9.289c-0.81,0-1.614-0.026-2.415-0.079v7.101h21.021c1.104,0,2,0.896,2,2  S55.662,204.893,54.558,204.893z M12.119,136.63C6.88,142.47,4,149.974,4,157.918c0,8.535,3.323,16.559,9.358,22.594  s14.059,9.359,22.594,9.359c7.933,0,15.424-2.871,21.286-8.122L12.119,136.63z M11.361,130.216l52.293,52.293l2.123-2.123  l-52.293-52.293L11.361,130.216z M15.997,174.789c-0.573,0-1.143-0.245-1.538-0.72c-8.586-10.314-4.647-23.688-4.476-24.252  c0.321-1.058,1.44-1.652,2.496-1.331s1.65,1.437,1.331,2.493c-0.041,0.139-3.454,11.91,3.723,20.531  c0.707,0.849,0.592,2.11-0.258,2.817C16.902,174.637,16.448,174.789,15.997,174.789z M190.467,174.789  c-0.451,0-0.905-0.152-1.278-0.463c-0.85-0.707-0.965-1.968-0.258-2.817c7.185-8.629,3.758-20.413,3.723-20.531  c-0.317-1.056,0.279-2.172,1.336-2.492c1.06-0.317,2.17,0.275,2.491,1.33c0.172,0.564,4.111,13.938-4.476,24.253  C191.609,174.543,191.04,174.789,190.467,174.789z M137.525,172.121c-0.44,0-0.885-0.145-1.254-0.443l-33.039-26.632l-33.04,26.632  c-0.859,0.692-2.12,0.558-2.812-0.302c-0.693-0.86-0.559-2.119,0.302-2.813l32.362-26.087L40.839,94.751l-14.865,32.264  c-0.462,1.003-1.65,1.441-2.653,0.979c-1.003-0.462-1.441-1.65-0.979-2.653l15.287-33.178l-11.423-9.208  c-0.86-0.693-0.995-1.952-0.302-2.813c0.692-0.859,1.953-0.994,2.812-0.302l10.639,8.576L78.839,2.718  c0.462-1.003,1.648-1.442,2.653-0.979c1.003,0.462,1.441,1.65,0.979,2.653L42.565,91.005l60.667,48.903l60.666-48.902L123.992,4.392  c-0.462-1.003-0.023-2.191,0.979-2.653c0.999-0.462,2.191-0.025,2.653,0.979l39.485,85.698l10.64-8.576  c0.858-0.693,2.119-0.559,2.812,0.302c0.693,0.86,0.559,2.119-0.302,2.813l-11.423,9.208l15.286,33.178  c0.462,1.003,0.023,2.191-0.979,2.653c-0.999,0.461-2.191,0.024-2.653-0.979l-14.865-32.263l-59.206,47.725l32.362,26.087  c0.86,0.693,0.995,1.952,0.302,2.813C138.688,171.866,138.109,172.121,137.525,172.121z" fill="#FFFFFF"/>
<g>
</g>
<g>
</g>
<g>
</g>
<g>
</g>
<g>
</g>
<g>
</g>
<g>
</g>
<g>
</g>
<g>
</g>
<g>
</g>
<g>
</g>
<g>
</g>
<g>
</g>
<g>
</g>
<g>
</g>
</svg>
