<?xml version="1.0" encoding="utf-8"?>
<!-- Generator: Adobe Illustrator 16.2.0, SVG Export Plug-In . SVG Version: 6.00 Build 0)  -->
<!DOCTYPE svg PUBLIC "-//W3C//DTD SVG 1.1//EN" "http://www.w3.org/Graphics/SVG/1.1/DTD/svg11.dtd">
<svg version="1.1" id="Слой_1" xmlns="http://www.w3.org/2000/svg" xmlns:xlink="http://www.w3.org/1999/xlink" x="0px" y="0px"
	 width="39.333px" height="42px" viewBox="0 0 39.333 42" enable-background="new 0 0 39.333 42" xml:space="preserve">
<path fill="#333333" d="M3.938,13.471c0-0.581,0.292-1.663,0.796-1.953l13.983-8.073c0.503-0.291,1.327-0.291,1.831,0l13.984,8.073
	c0.504,0.29,1.406,1.372,1.406,1.953v16c0,0.582-0.902,1.074-1.406,1.365l-13.984,8.072c-0.502,0.291-1.326,0.291-1.831,0
	L4.733,30.836c-0.504-0.291-0.796-0.783-0.796-1.365L3.938,13.471L3.938,13.471z"/>
<g>
	<g id="Shape_17">
		<g>
			<path fill="#FFFFFF" d="M28.159,16.813c0-0.38-0.139-0.725-0.36-0.987c-0.004-0.005-0.005-0.011-0.009-0.017
				c-0.004-0.004-0.009-0.006-0.013-0.011c-0.251-0.285-0.606-0.465-1.001-0.465H13.099c-0.395,0-0.749,0.18-1.001,0.465
				c-0.004,0.005-0.009,0.007-0.013,0.012c-0.004,0.005-0.005,0.011-0.009,0.017c-0.221,0.263-0.359,0.606-0.359,0.986v8.726
				c0,0.389,0.145,0.742,0.375,1.006c0.004,0.006,0.006,0.014,0.011,0.018c0.001,0.002,0.003,0.002,0.005,0.004
				c0.251,0.279,0.602,0.453,0.99,0.453h13.677c0.389,0,0.74-0.174,0.99-0.453c0.002-0.002,0.004-0.002,0.006-0.004
				c0.005-0.004,0.006-0.012,0.012-0.016c0.23-0.266,0.375-0.619,0.375-1.008V16.813L28.159,16.813z M22.777,20.715l4.737-4.26
				c0.047,0.109,0.074,0.23,0.074,0.357v8.726c0,0.115-0.021,0.225-0.061,0.326L22.777,20.715z M26.776,15.943
				c0.119,0,0.232,0.03,0.335,0.08l-7.173,6.448l-7.173-6.448c0.103-0.05,0.215-0.08,0.334-0.08H26.776z M12.347,25.865
				c-0.038-0.102-0.061-0.211-0.061-0.326v-8.726c0-0.127,0.028-0.248,0.074-0.357l4.738,4.26L12.347,25.865z M13.099,26.408
				c-0.131,0-0.254-0.037-0.364-0.096l4.801-5.205l2.218,1.996c0.053,0.047,0.118,0.07,0.183,0.07s0.13-0.023,0.183-0.07
				l2.218-1.996l4.803,5.205c-0.11,0.059-0.232,0.096-0.365,0.096H13.099L13.099,26.408z"/>
		</g>
	</g>
</g>
</svg>
