<?xml version="1.0" encoding="utf-8"?>
<!-- Generator: Adobe Illustrator 16.2.0, SVG Export Plug-In . SVG Version: 6.00 Build 0)  -->
<!DOCTYPE svg PUBLIC "-//W3C//DTD SVG 1.1//EN" "http://www.w3.org/Graphics/SVG/1.1/DTD/svg11.dtd">
<svg version="1.1" id="Capa_1" xmlns="http://www.w3.org/2000/svg" xmlns:xlink="http://www.w3.org/1999/xlink" x="0px" y="0px"
	 width="25.539px" height="22.912px" viewBox="0 0 25.539 22.912" enable-background="new 0 0 25.539 22.912" xml:space="preserve">
<g>
	<g>
		<g>
			<path fill="#FFFFFF" d="M19.591,18.204l-3.095-3.486c-0.617-0.691-1.638-0.67-2.275,0.048l-1.56,1.755
				c-0.098-0.061-0.2-0.125-0.308-0.192c-0.985-0.615-2.332-1.457-3.75-3.055c-1.422-1.602-2.17-3.122-2.718-4.231
				C5.828,8.926,5.772,8.813,5.718,8.705l1.046-1.177l0.515-0.58c0.639-0.72,0.657-1.869,0.042-2.563L4.225,0.899
				C3.61,0.207,2.589,0.228,1.95,0.947L1.078,1.936l0.024,0.027C0.809,2.382,0.564,2.867,0.383,3.39
				c-0.167,0.497-0.272,0.972-0.32,1.448c-0.409,3.815,1.14,7.302,5.341,12.034c5.808,6.541,10.488,6.046,10.69,6.022
				c0.439-0.059,0.861-0.177,1.29-0.365c0.46-0.203,0.89-0.477,1.263-0.806l0.019,0.019l0.884-0.974
				C20.188,20.049,20.207,18.899,19.591,18.204z"/>
		</g>
	</g>
</g>
</svg>
