<?xml version="1.0" encoding="utf-8"?>
<!-- Generator: Adobe Illustrator 16.2.0, SVG Export Plug-In . SVG Version: 6.00 Build 0)  -->
<!DOCTYPE svg PUBLIC "-//W3C//DTD SVG 1.1//EN" "http://www.w3.org/Graphics/SVG/1.1/DTD/svg11.dtd">
<svg version="1.1" id="Capa_1" xmlns="http://www.w3.org/2000/svg" xmlns:xlink="http://www.w3.org/1999/xlink" x="0px" y="0px"
	 width="152.5px" height="128px" viewBox="0 0 152.5 128" enable-background="new 0 0 152.5 128" xml:space="preserve">
<g>
	<g>
		<ellipse fill="#333333" cx="19.063" cy="12" rx="4.766" ry="4"/>
		<ellipse fill="#333333" cx="33.359" cy="12" rx="4.766" ry="4"/>
		<ellipse fill="#333333" cx="47.656" cy="12" rx="4.766" ry="4"/>
		<path fill="#333333" d="M138.203,0H14.297C6.401,0,0,5.373,0,12v8v4v92c0,6.627,6.401,12,14.297,12h123.906
			c7.896,0,14.297-5.373,14.297-12V24v-4v-8C152.5,5.373,146.099,0,138.203,0z M147.734,114c0,5.521-5.336,10-11.914,10H16.68
			c-6.579,0-11.914-4.479-11.914-10V24h142.969V114z M147.734,20H4.766v-6c0-5.522,5.335-10,11.914-10H135.82
			c6.578,0,11.914,4.478,11.914,10V20z"/>
	</g>
</g>
<g>
	<path fill="#333333" d="M84.548,66.421c-0.824-0.83-2.164-0.83-2.99,0c-0.824,0.829-0.824,2.177,0,3.007
		c2.25,2.262,2.25,5.943,0,8.204c-0.824,0.833-0.824,2.179,0,3.007c0.414,0.416,0.955,0.623,1.496,0.623s1.082-0.207,1.494-0.623
		C88.444,76.721,88.444,70.341,84.548,66.421z"/>
	<path fill="#333333" d="M90.745,60.189c-0.824-0.83-2.164-0.83-2.99,0s-0.826,2.177,0,3.006c5.67,5.7,5.67,14.97,0,20.668
		c-0.826,0.83-0.826,2.177,0,3.007c0.412,0.416,0.955,0.624,1.496,0.624c0.539,0,1.084-0.208,1.494-0.624
		C98.062,79.518,98.062,67.545,90.745,60.189z"/>
	<path fill="#333333" d="M97.659,53.236c-0.82-0.831-2.162-0.831-2.988,0c-0.824,0.83-0.824,2.176,0,3.006
		c4.596,4.618,7.123,10.758,7.123,17.287c0,6.531-2.526,12.673-7.123,17.291c-0.824,0.83-0.824,2.177,0,3.006
		c0.414,0.415,0.953,0.622,1.496,0.622c0.541,0,1.084-0.207,1.492-0.622c5.393-5.422,8.363-12.628,8.363-20.297
		C106.022,65.864,103.052,58.657,97.659,53.236z"/>
	<path fill="#333333" d="M75.984,51.944c-0.753-0.347-1.635-0.222-2.262,0.32l-13.435,11.61h-6.143
		c-1.167,0-2.114,0.951-2.114,2.127v15.062c0,1.174,0.946,2.125,2.114,2.125h6.143l13.433,11.609
		c0.394,0.339,0.883,0.514,1.38,0.514c0.299,0,0.6-0.063,0.883-0.194c0.749-0.345,1.229-1.099,1.229-1.933V53.878
		C77.215,53.047,76.733,52.292,75.984,51.944z M56.26,68.126h2.697v10.81H56.26V68.126z M72.986,88.553l-9.801-8.468V66.979
		l9.801-8.472V88.553z"/>
</g>
</svg>
