<?xml version="1.0" encoding="utf-8"?>
<!-- Generator: Adobe Illustrator 16.2.0, SVG Export Plug-In . SVG Version: 6.00 Build 0)  -->
<!DOCTYPE svg PUBLIC "-//W3C//DTD SVG 1.1//EN" "http://www.w3.org/Graphics/SVG/1.1/DTD/svg11.dtd">
<svg version="1.1" id="Capa_1" xmlns="http://www.w3.org/2000/svg" xmlns:xlink="http://www.w3.org/1999/xlink" x="0px" y="0px"
	 width="152.5px" height="128px" viewBox="0 0 152.5 128" enable-background="new 0 0 152.5 128" xml:space="preserve">
<g>
	<g>
		<ellipse fill="#333333" cx="19.063" cy="12" rx="4.766" ry="4"/>
		<ellipse fill="#333333" cx="33.359" cy="12" rx="4.766" ry="4"/>
		<ellipse fill="#333333" cx="47.656" cy="12" rx="4.766" ry="4"/>
		<path fill="#333333" d="M138.203,0H14.297C6.401,0,0,5.373,0,12v8v4v92c0,6.627,6.401,12,14.297,12h123.906
			c7.896,0,14.297-5.373,14.297-12V24v-4v-8C152.5,5.373,146.1,0,138.203,0z M147.734,114c0,5.521-5.336,10-11.914,10H16.68
			c-6.579,0-11.914-4.479-11.914-10V24h142.968V114L147.734,114z M147.734,20H4.766v-6c0-5.522,5.335-10,11.914-10h119.14
			c6.578,0,11.914,4.478,11.914,10V20L147.734,20z"/>
	</g>
</g>
<g>
	<g>
		<path fill="#333333" d="M101.197,51.2H86.896v-5.765c0-6.026-4.771-10.931-10.639-10.931c-5.865,0-10.64,4.905-10.64,10.931V51.2
			H52.133l-3.451,61.61h55.134L101.197,51.2z M68.015,45.435c0-4.668,3.701-8.469,8.244-8.469c4.548,0,8.24,3.801,8.24,8.469V51.2
			H68.015V45.435z M54.393,53.66h11.226v5.768h2.396V53.66h16.489v5.768H86.9V53.66h12.008l2.406,56.693H51.22L54.393,53.66z"/>
	</g>
</g>
</svg>
