<?xml version="1.0" encoding="utf-8"?>
<!-- Generator: Adobe Illustrator 16.2.0, SVG Export Plug-In . SVG Version: 6.00 Build 0)  -->
<!DOCTYPE svg PUBLIC "-//W3C//DTD SVG 1.1//EN" "http://www.w3.org/Graphics/SVG/1.1/DTD/svg11.dtd">
<svg version="1.1" id="Слой_1" xmlns="http://www.w3.org/2000/svg" xmlns:xlink="http://www.w3.org/1999/xlink" x="0px" y="0px"
	 width="99px" height="11px" viewBox="0 0 99 11" enable-background="new 0 0 99 11" xml:space="preserve">
<path fill-rule="evenodd" clip-rule="evenodd" fill="none" stroke="#333333" stroke-miterlimit="10" d="M99,5H55
	c-0.345-2.802-3.107-5-6-5c-2.894,0-4.655,2.2-5,5H0v1h44c0.157,2.987,1.97,4.998,5,5c3.028-0.002,5.842-2.013,6-5h44V5z M49,10
	c-2.578-0.002-3.996-1.426-4-4c0.004-2.578,1.422-4.996,4-5c2.576,0.004,4.986,2.21,4.99,4.789C53.986,8.363,51.576,9.998,49,10z"/>
</svg>
