<?xml version="1.0" encoding="utf-8"?>
<!-- Generator: Adobe Illustrator 16.2.0, SVG Export Plug-In . SVG Version: 6.00 Build 0)  -->
<!DOCTYPE svg PUBLIC "-//W3C//DTD SVG 1.1//EN" "http://www.w3.org/Graphics/SVG/1.1/DTD/svg11.dtd">
<svg version="1.1" id="Capa_1" xmlns="http://www.w3.org/2000/svg" xmlns:xlink="http://www.w3.org/1999/xlink" x="0px" y="0px"
	 width="70.106px" height="66.665px" viewBox="0 0 70.106 66.665" enable-background="new 0 0 70.106 66.665" xml:space="preserve">
<g>
	<g>
		<path fill="#FFFFFF" d="M54.066,25.705C54.066,11.51,41.962,0,27.033,0C12.105,0,0.001,11.51,0.001,25.705
			S12.105,51.41,27.033,51.41C41.962,51.41,54.066,39.9,54.066,25.705z M27.033,44.983c-11.18,0-20.274-8.647-20.274-19.278
			c0-10.631,9.094-19.279,20.274-19.279s20.274,8.647,20.274,19.279C47.308,36.336,38.213,44.983,27.033,44.983z"/>
		<path fill="#FFFFFF" d="M70.106,57.578L53.569,41.851c-2.464,3.644-5.726,6.743-9.558,9.086l16.539,15.727
			c2.64,2.51,6.921,2.51,9.556,0C72.747,64.158,72.747,60.087,70.106,57.578z"/>
	</g>
</g>
</svg>
